<?xml version="1.0" encoding="utf-8"?>
<svg xmlns="http://www.w3.org/2000/svg" style="margin: auto; background: none; display: block; shape-rendering: auto;" width="280" height="250" preserveAspectRatio="xMidYMid">
<style type="text/css">
  text {
    text-anchor: middle; font-size: 48px; opacity: 0;
  }
</style>
<g style="transform-origin: 140px 125px; transform: scale(0.6);">
<g transform="translate(140,125)">
  <g transform="translate(0,0)"><g class="path" style="transform: matrix(1, 0, 0, 1, 0, 0); transform-origin: -189.28px -9.8373px; animation: 12.5s linear -7.61538s infinite normal forwards running tremble-f1894443-e74d-4dbf-a10e-57e2131b9559;"><path d="M3.68 0.16L3.68 0.16L3.68 0.16Q3.20-1.28 3.68-2.72L3.68-2.72L10.32-3.68L10.32-3.68Q10.64-6.72 10.64-13.04L10.64-13.04L10.64-60.16L4.16-60.96L4.16-60.96Q3.84-62.16 4.16-63.92L4.16-63.92L4.16-63.92Q5.36-63.84 7.92-63.84L7.92-63.84L7.92-63.84Q13.04-63.84 21.16-64.28L21.16-64.28L21.16-64.28Q29.28-64.72 30.48-64.72L30.48-64.72L30.48-64.72Q46.16-64.72 54.24-56.24L54.24-56.24L54.24-56.24Q62.32-47.76 62.32-33.44L62.32-33.44L62.32-33.44Q62.32-18.88 54.72-9.28L54.72-9.28L54.72-9.28Q47.12 0.32 33.44 0.32L33.44 0.32L33.44 0.32Q28.88 0.32 21.36 0.20L21.36 0.20L21.36 0.20Q13.84 0.08 10.56 0.08L10.56 0.08L10.56 0.08Q5.92 0.08 3.68 0.16zM30.40-3.52L30.40-3.52L30.40-3.52Q52.96-3.52 52.96-32.96L52.96-32.96L52.96-32.96Q52.96-45.68 47.08-53.04L47.08-53.04L47.08-53.04Q41.20-60.40 30.16-60.88L30.16-60.88L30.16-60.88Q29.20-60.96 27.20-60.96L27.20-60.96L27.20-60.96Q22.96-60.96 19.52-60.32L19.52-60.32L19.52-60.32Q19.20-57.28 19.20-50.64L19.20-50.64L19.20-3.76L19.20-3.76Q20.16-3.76 23.80-3.64L23.80-3.64L23.80-3.64Q27.44-3.52 30.40-3.52" fill="#ffffff" stroke="none" stroke-width="none" transform="translate(-222.16000366210938,22.362705154418947)" style="fill: rgb(255, 255, 255);"></path></g><g class="path" style="transform: matrix(1, 0, 0, 1, 0, 0); transform-origin: -142.64px 0.362705px; animation: 12.5s linear -6.98077s infinite normal forwards running tremble-f1894443-e74d-4dbf-a10e-57e2131b9559;"><path d="M83.44-29.76L83.44-29.76L83.44-4.08L89.92-2.88L89.92-2.88Q90-2.48 90.04-2.16L90.04-2.16L90.04-2.16Q90.08-1.84 90.08-1.44L90.08-1.44L90.08-1.44Q90.08-1.04 90.04-0.60L90.04-0.60L90.04-0.60Q90-0.16 89.92 0.32L89.92 0.32L89.92 0.32Q84.88 0.08 79.60 0.08L79.60 0.08L79.60 0.08Q77.76 0.08 75.16 0.12L75.16 0.12L75.16 0.12Q72.56 0.16 69.20 0.24L69.20 0.24L69.20 0.24Q68.96-0.48 68.96-1.28L68.96-1.28L68.96-1.28Q68.96-2 69.20-2.88L69.20-2.88L75.52-3.76L75.52-3.76Q75.68-6 75.76-8.52L75.76-8.52L75.76-8.52Q75.84-11.04 75.84-13.92L75.84-13.92L75.84-30.96L75.84-30.96Q75.84-36.24 75.60-38.80L75.60-38.80L69.28-39.60L69.28-39.60Q69.12-40 69.12-40.96L69.12-40.96L69.12-40.96Q69.12-41.36 69.12-41.76L69.12-41.76L69.12-41.76Q69.12-42.16 69.28-42.64L69.28-42.64L69.28-42.64Q74.72-42.96 83.04-44.32L83.04-44.32L83.04-44.32Q83.76-43.52 83.84-42.72L83.84-42.72L83.84-42.72Q83.44-40.48 83.44-29.76" fill="#ffffff" stroke="none" stroke-width="none" transform="translate(-222.16000366210938,22.362705154418947)" style="fill: rgb(230, 246, 255);"></path></g><g class="path" style="transform: matrix(1, 0, 0, 1, 0, 0); transform-origin: -144.64px -37.3573px; animation: 12.5s linear -6.34615s infinite normal forwards running tremble-f1894443-e74d-4dbf-a10e-57e2131b9559;"><path d="M71.76-58.32L71.76-58.32L71.76-58.32Q71.60-58.72 71.60-59.16L71.60-59.16L71.60-59.16Q71.60-59.60 71.60-60L71.60-60L71.60-60Q71.60-62.16 73.40-63.48L73.40-63.48L73.40-63.48Q75.20-64.80 77.84-64.80L77.84-64.80L77.84-64.80Q80.32-64.80 81.88-63.32L81.88-63.32L81.88-63.32Q83.44-61.84 83.44-59.28L83.44-59.28L83.44-59.28Q83.44-57.20 81.64-55.92L81.64-55.92L81.64-55.92Q79.84-54.64 77.04-54.64L77.04-54.64L77.04-54.64Q75.12-54.64 73.64-55.60L73.64-55.60L73.64-55.60Q72.16-56.56 71.76-58.32" fill="#ffffff" stroke="none" stroke-width="none" transform="translate(-222.16000366210938,22.362705154418947)" style="fill: rgb(230, 246, 255);"></path></g><g class="path" style="transform: matrix(1, 0, 0, 1, 0, 0); transform-origin: -107.88px 1.0027px; animation: 12.5s linear -5.71154s infinite normal forwards running tremble-f1894443-e74d-4dbf-a10e-57e2131b9559;"><path d="M102.40-10.64L102.40-10.64L102.40-10.64Q102.40-6.48 103.92-4.76L103.92-4.76L103.92-4.76Q105.44-3.04 108.72-3.04L108.72-3.04L108.72-3.04Q111.12-3.04 114.04-4.52L114.04-4.52L114.04-4.52Q116.96-6 119.44-8.80L119.44-8.80L119.44-21.28L119.44-21.28Q111.20-20.80 106.80-18.36L106.80-18.36L106.80-18.36Q102.40-15.92 102.40-10.64zM119.44-24.16L119.44-24.16L119.44-28.24L119.44-28.24Q119.44-35.04 117.88-38.12L117.88-38.12L117.88-38.12Q116.32-41.20 112.72-41.20L112.72-41.20L112.72-41.20Q109.04-41.20 106.80-38.84L106.80-38.84L106.80-38.84Q104.56-36.48 103.76-30.80L103.76-30.80L103.76-30.80Q101.20-30.24 100-30.24L100-30.24L100-30.24Q96.88-30.24 96.32-32.48L96.32-32.48L96.32-32.48Q96.32-37.92 101.04-41.12L101.04-41.12L101.04-41.12Q105.76-44.32 112.80-44.32L112.80-44.32L112.80-44.32Q120.56-44.32 123.80-41.16L123.80-41.16L123.80-41.16Q127.04-38 127.04-29.84L127.04-29.84L127.04-7.28L127.04-7.28Q127.04-5.28 127.28-3.84L127.28-3.84L133.60-3.04L133.60-3.04Q133.92-1.84 133.60 0L133.60 0L133.60 0Q127.92 0.24 121.52 1.12L121.52 1.12L121.52 1.12Q120.88 0.48 120.72-0.48L120.72-0.48L120.32-6L120.32-6Q113.68 1.60 105.52 1.60L105.52 1.60L105.52 1.60Q100.48 1.60 97.64-1.28L97.64-1.28L97.64-1.28Q94.80-4.16 94.80-9.04L94.80-9.04L94.80-9.04Q94.80-16.40 101.48-20.16L101.48-20.16L101.48-20.16Q108.16-23.92 119.44-24.16" fill="#ffffff" stroke="none" stroke-width="none" transform="translate(-222.16000366210938,22.362705154418947)" style="fill: rgb(230, 246, 255);"></path></g><g class="path" style="transform: matrix(1, 0, 0, 1, 0, 0); transform-origin: -65.88px 6.72271px; animation: 12.5s linear -5.07692s infinite normal forwards running tremble-f1894443-e74d-4dbf-a10e-57e2131b9559;"><path d="M143.92 0.88L143.92 0.88L143.92 0.88Q144.64 1.20 145.12 2.24L145.12 2.24L145.12 2.24Q142.48 4.40 142.48 8.72L142.48 8.72L142.48 8.72Q142.48 12.56 146 14.88L146 14.88L146 14.88Q149.52 17.20 155.12 17.20L155.12 17.20L155.12 17.20Q160.88 17.20 164.72 15.08L164.72 15.08L164.72 15.08Q168.56 12.96 168.56 9.12L168.56 9.12L168.56 9.12Q168.56 4.96 167.04 3L167.04 3L167.04 3Q165.52 1.04 160.96 0.64L160.96 0.64L146-0.72L146-0.72Q143.52-1.04 141.88-3.32L141.88-3.32L141.88-3.32Q140.24-5.60 140.24-7.76L140.24-7.76L145.60-16.64L145.60-16.64Q141.92-18.72 140.04-22.16L140.04-22.16L140.04-22.16Q138.16-25.60 138.16-29.20L138.16-29.20L138.16-29.20Q138.16-36 143.20-40.16L143.20-40.16L143.20-40.16Q148.24-44.32 154.80-44.32L154.80-44.32L154.80-44.32Q161.12-44.32 165.92-40.96L165.92-40.96L165.92-40.96Q166.32-51.92 174.08-52.32L174.08-52.32L174.08-52.32Q176.16-51.84 176.16-48.88L176.16-48.88L176.16-48.88Q176.16-47.28 175.84-45.36L175.84-45.36L175.84-45.36Q172.72-45.12 170.72-43.32L170.72-43.32L170.72-43.32Q168.72-41.52 167.84-39.20L167.84-39.20L167.84-39.20Q171.84-35.20 171.84-29.20L171.84-29.20L171.84-29.20Q171.84-22.88 166.72-18.68L166.72-18.68L166.72-18.68Q161.60-14.48 154.80-14.48L154.80-14.48L154.80-14.48Q151.20-14.48 148.32-15.44L148.32-15.44L145.60-8.32L165.52-6.32L165.52-6.32Q170.16-5.76 172.60-2.92L172.60-2.92L172.60-2.92Q175.04-0.08 175.04 4.48L175.04 4.48L175.04 4.48Q175.04 12.48 169.28 16.76L169.28 16.76L169.28 16.76Q163.52 21.04 153.68 21.04L153.68 21.04L153.68 21.04Q145.52 21.04 140.96 18.08L140.96 18.08L140.96 18.08Q136.40 15.12 136.40 10.16L136.40 10.16L136.40 10.16Q136.40 6.80 138.56 4.20L138.56 4.20L138.56 4.20Q140.72 1.60 143.92 0.88zM145.36-29.20L145.36-29.20L145.36-29.20Q145.36-24.56 147.96-21.28L147.96-21.28L147.96-21.28Q150.56-18 154.88-18L154.88-18L154.88-18Q159.12-18 161.84-21.24L161.84-21.24L161.84-21.24Q164.56-24.48 164.56-29.20L164.56-29.20L164.56-29.20Q164.56-34.32 161.88-37.72L161.88-37.72L161.88-37.72Q159.20-41.12 154.88-41.12L154.88-41.12L154.88-41.12Q150.80-41.12 148.08-37.68L148.08-37.68L148.08-37.68Q145.36-34.24 145.36-29.20" fill="#ffffff" stroke="none" stroke-width="none" transform="translate(-222.16000366210938,22.362705154418947)" style="fill: rgb(255, 255, 255);"></path></g><g class="path" style="transform: matrix(1, 0, 0, 1, 0, 0); transform-origin: -19.88px 0.362705px; animation: 12.5s linear -4.44231s infinite normal forwards running tremble-f1894443-e74d-4dbf-a10e-57e2131b9559;"><path d="M211.92-13.92L211.92-28.56L211.92-28.56Q211.92-34.72 210.28-37.20L210.28-37.20L210.28-37.20Q208.64-39.68 204.80-39.68L204.80-39.68L204.80-39.68Q198.88-39.68 192.88-30.80L192.88-30.80L192.88-4.08L199.36-2.88L199.36-2.88Q199.68-1.60 199.36 0.32L199.36 0.32L199.36 0.32Q194.32 0.08 189.04 0.08L189.04 0.08L189.04 0.08Q185.36 0.08 178.64 0.24L178.64 0.24L178.64 0.24Q178.16-1.28 178.64-2.88L178.64-2.88L184.96-3.76L184.96-3.76Q185.28-8.16 185.28-13.92L185.28-13.92L185.28-35.84L185.28-35.84Q185.28-37.44 185.04-38.80L185.04-38.80L178.72-39.60L178.72-39.60Q178.40-40.80 178.72-42.64L178.72-42.64L178.72-42.64Q184.24-43.04 192.48-44.32L192.48-44.32L192.48-44.32Q193.20-43.52 193.28-42.72L193.28-42.72L193.28-42.72Q192.88-40.64 192.88-35.60L192.88-35.60L192.88-35.60Q199.20-44.32 207.12-44.32L207.12-44.32L207.12-44.32Q219.52-44.32 219.52-32.56L219.52-32.56L219.52-4.08L226-2.88L226-2.88Q226.32-1.60 226 0.32L226 0.32L226 0.32Q220.96 0.08 215.68 0.08L215.68 0.08L215.68 0.08Q212 0.08 205.28 0.24L205.28 0.24L205.28 0.24Q204.80-1.28 205.28-2.88L205.28-2.88L211.60-3.76L211.60-3.76Q211.92-8.16 211.92-13.92L211.92-13.92" fill="#ffffff" stroke="none" stroke-width="none" transform="translate(-222.16000366210938,22.362705154418947)" style="fill: rgb(255, 255, 255);"></path></g><g class="path" style="transform: matrix(1, 0, 0, 1, 0, 0); transform-origin: 28.72px 1.0027px; animation: 12.5s linear -3.80769s infinite normal forwards running tremble-f1894443-e74d-4dbf-a10e-57e2131b9559;"><path d="M230.64-21.28L230.64-21.28L230.64-21.28Q230.64-26.08 232.04-30.28L232.04-30.28L232.04-30.28Q233.44-34.48 236.08-37.60L236.08-37.60L236.08-37.60Q238.72-40.72 242.44-42.52L242.44-42.52L242.44-42.52Q246.16-44.32 250.80-44.32L250.80-44.32L250.80-44.32Q255.36-44.32 259.12-42.52L259.12-42.52L259.12-42.52Q262.88-40.72 265.56-37.60L265.56-37.60L265.56-37.60Q268.24-34.48 269.68-30.28L269.68-30.28L269.68-30.28Q271.12-26.08 271.12-21.28L271.12-21.28L271.12-21.28Q271.12-16.32 269.64-12.16L269.64-12.16L269.64-12.16Q268.16-8 265.48-4.92L265.48-4.92L265.48-4.92Q262.80-1.84 259.04-0.12L259.04-0.12L259.04-0.12Q255.28 1.60 250.80 1.60L250.80 1.60L250.80 1.60Q246.08 1.60 242.36-0.08L242.36-0.08L242.36-0.08Q238.64-1.76 236.04-4.80L236.04-4.80L236.04-4.80Q233.44-7.84 232.04-12.04L232.04-12.04L232.04-12.04Q230.64-16.24 230.64-21.28zM242.32-36L242.32-36L242.32-36Q238.88-31.12 238.88-21.28L238.88-21.28L238.88-21.28Q238.88-16.40 239.80-12.72L239.80-12.72L239.80-12.72Q240.72-9.04 242.32-6.60L242.32-6.60L242.32-6.60Q243.92-4.16 246.08-2.96L246.08-2.96L246.08-2.96Q248.24-1.76 250.80-1.76L250.80-1.76L250.80-1.76Q253.28-1.76 255.52-2.96L255.52-2.96L255.52-2.96Q257.76-4.16 259.36-6.60L259.36-6.60L259.36-6.60Q260.96-9.04 261.92-12.72L261.92-12.72L261.92-12.72Q262.88-16.40 262.88-21.28L262.88-21.28L262.88-21.28Q262.88-26.16 261.92-29.88L261.92-29.88L261.92-29.88Q260.96-33.60 259.32-36.04L259.32-36.04L259.32-36.04Q257.68-38.48 255.48-39.72L255.48-39.72L255.48-39.72Q253.28-40.96 250.80-40.96L250.80-40.96L250.80-40.96Q245.84-40.96 242.32-36" fill="#ffffff" stroke="none" stroke-width="none" transform="translate(-222.16000366210938,22.362705154418947)" style="fill: rgb(230, 246, 255);"></path></g><g class="path" style="transform: matrix(1, 0, 0, 1, 0, 0); transform-origin: 70.92px 1.0027px; animation: 12.5s linear -3.17308s infinite normal forwards running tremble-f1894443-e74d-4dbf-a10e-57e2131b9559;"><path d="M292.32-1.92L292.32-1.92L292.32-1.92Q296.64-1.92 298.72-3.92L298.72-3.92L298.72-3.92Q300.80-5.92 300.80-8.56L300.80-8.56L300.80-8.56Q300.80-10.08 300.32-11.36L300.32-11.36L300.32-11.36Q299.84-12.64 298.76-13.84L298.76-13.84L298.76-13.84Q297.68-15.04 295.92-16.20L295.92-16.20L295.92-16.20Q294.16-17.36 291.52-18.72L291.52-18.72L291.52-18.72Q288.24-20.40 285.88-21.92L285.88-21.92L285.88-21.92Q283.52-23.44 282-25.12L282-25.12L282-25.12Q280.48-26.80 279.72-28.72L279.72-28.72L279.72-28.72Q278.96-30.64 278.96-33.04L278.96-33.04L278.96-33.04Q278.96-35.92 280-38.04L280-38.04L280-38.04Q281.04-40.16 282.92-41.56L282.92-41.56L282.92-41.56Q284.80-42.96 287.36-43.64L287.36-43.64L287.36-43.64Q289.92-44.32 293.04-44.32L293.04-44.32L293.04-44.32Q299.28-44.32 305.20-41.28L305.20-41.28L305.20-31.04L301.44-31.04L299.68-39.68L299.68-39.68Q296.16-41.36 292.24-41.36L292.24-41.36L292.24-41.36Q285.68-41.36 285.68-36L285.68-36L285.68-36Q285.68-33.12 287.84-30.72L287.84-30.72L287.84-30.72Q290-28.32 294.80-25.92L294.80-25.92L294.80-25.92Q298.08-24.24 300.56-22.72L300.56-22.72L300.56-22.72Q303.04-21.20 304.68-19.52L304.68-19.52L304.68-19.52Q306.32-17.84 307.16-15.88L307.16-15.88L307.16-15.88Q308-13.92 308-11.44L308-11.44L308-11.44Q308-8.64 306.80-6.24L306.80-6.24L306.80-6.24Q305.60-3.84 303.44-2.12L303.44-2.12L303.44-2.12Q301.28-0.40 298.24 0.60L298.24 0.60L298.24 0.60Q295.20 1.60 291.52 1.60L291.52 1.60L291.52 1.60Q284.40 1.60 278.16-1.44L278.16-1.44L278.16-11.68L281.92-11.68L283.68-3.76L283.68-3.76Q287.76-1.92 292.32-1.92" fill="#ffffff" stroke="none" stroke-width="none" transform="translate(-222.16000366210938,22.362705154418947)" style="fill: rgb(230, 246, 255);"></path></g><g class="path" style="transform: matrix(1, 0, 0, 1, 0, 0); transform-origin: 103.72px -3.1173px; animation: 12.5s linear -2.53846s infinite normal forwards running tremble-f1894443-e74d-4dbf-a10e-57e2131b9559;"><path d="M326.56-52.32L326.56-52.32L326.56-40.88L337.84-40.88L337.84-40.88Q338-39.92 338-39.44L338-39.44L338-39.44Q338-38.72 337.84-37.76L337.84-37.76L326.56-36.08L326.56-14.08L326.56-14.08Q326.56-8.16 327.64-5.72L327.64-5.72L327.64-5.72Q328.72-3.28 331.04-3.28L331.04-3.28L331.04-3.28Q333.12-3.28 337.52-4.96L337.52-4.96L337.52-4.96Q338.32-4.24 338.64-2.24L338.64-2.24L338.64-2.24Q336.24-0.80 335-0.12L335-0.12L335-0.12Q333.76 0.56 331.88 1.08L331.88 1.08L331.88 1.08Q330 1.60 327.92 1.60L327.92 1.60L327.92 1.60Q323.92 1.60 321.40-1.48L321.40-1.48L321.40-1.48Q318.88-4.56 318.88-10.88L318.88-10.88L318.88-37.04L313.28-37.76L313.28-37.76Q313.12-38.56 313.12-39.12L313.12-39.12L313.12-39.12Q313.12-39.76 313.28-40.88L313.28-40.88L313.28-40.88Q315.52-41.28 317.16-42.28L317.16-42.28L317.16-42.28Q318.80-43.28 319.92-45.08L319.92-45.08L319.92-45.08Q321.04-46.88 321.64-48.28L321.64-48.28L321.64-48.28Q322.24-49.68 323.12-52.32L323.12-52.32L323.12-52.32Q323.84-52.56 324.88-52.56L324.88-52.56L324.88-52.56Q325.84-52.56 326.56-52.32" fill="#ffffff" stroke="none" stroke-width="none" transform="translate(-222.16000366210938,22.362705154418947)" style="fill: rgb(230, 246, 255);"></path></g><g class="path" style="transform: matrix(1, 0, 0, 1, 0, 0); transform-origin: 130.4px 0.362705px; animation: 12.5s linear -1.90385s infinite normal forwards running tremble-f1894443-e74d-4dbf-a10e-57e2131b9559;"><path d="M356.48-29.76L356.48-29.76L356.48-4.08L362.96-2.88L362.96-2.88Q363.04-2.48 363.08-2.16L363.08-2.16L363.08-2.16Q363.12-1.84 363.12-1.44L363.12-1.44L363.12-1.44Q363.12-1.04 363.08-0.60L363.08-0.60L363.08-0.60Q363.04-0.16 362.96 0.32L362.96 0.32L362.96 0.32Q357.92 0.08 352.64 0.08L352.64 0.08L352.64 0.08Q350.80 0.08 348.20 0.12L348.20 0.12L348.20 0.12Q345.60 0.16 342.24 0.24L342.24 0.24L342.24 0.24Q342.00-0.48 342.00-1.28L342.00-1.28L342.00-1.28Q342.00-2 342.24-2.88L342.24-2.88L348.56-3.76L348.56-3.76Q348.72-6 348.80-8.52L348.80-8.52L348.80-8.52Q348.88-11.04 348.88-13.92L348.88-13.92L348.88-30.96L348.88-30.96Q348.88-36.24 348.64-38.80L348.64-38.80L342.32-39.60L342.32-39.60Q342.16-40 342.16-40.96L342.16-40.96L342.16-40.96Q342.16-41.36 342.16-41.76L342.16-41.76L342.16-41.76Q342.16-42.16 342.32-42.64L342.32-42.64L342.32-42.64Q347.76-42.96 356.08-44.32L356.08-44.32L356.08-44.32Q356.80-43.52 356.88-42.72L356.88-42.72L356.88-42.72Q356.48-40.48 356.48-29.76" fill="#ffffff" stroke="none" stroke-width="none" transform="translate(-222.16000366210938,22.362705154418947)" style="fill: rgb(255, 255, 255);"></path></g><g class="path" style="transform: matrix(1, 0, 0, 1, 0, 0); transform-origin: 128.4px -37.3573px; animation: 12.5s linear -1.26923s infinite normal forwards running tremble-f1894443-e74d-4dbf-a10e-57e2131b9559;"><path d="M344.80-58.32L344.80-58.32L344.80-58.32Q344.64-58.72 344.64-59.16L344.64-59.16L344.64-59.16Q344.64-59.60 344.64-60L344.64-60L344.64-60Q344.64-62.16 346.44-63.48L346.44-63.48L346.44-63.48Q348.24-64.80 350.88-64.80L350.88-64.80L350.88-64.80Q353.36-64.80 354.92-63.32L354.92-63.32L354.92-63.32Q356.48-61.84 356.48-59.28L356.48-59.28L356.48-59.28Q356.48-57.20 354.68-55.92L354.68-55.92L354.68-55.92Q352.88-54.64 350.08-54.64L350.08-54.64L350.08-54.64Q348.16-54.64 346.68-55.60L346.68-55.60L346.68-55.60Q345.20-56.56 344.80-58.32" fill="#ffffff" stroke="none" stroke-width="none" transform="translate(-222.16000366210938,22.362705154418947)" style="fill: rgb(255, 255, 255);"></path></g><g class="path" style="transform: matrix(1, 0, 0, 1, 0, 0); transform-origin: 163.24px 1.0027px; animation: 12.5s linear -0.634615s infinite normal forwards running tremble-f1894443-e74d-4dbf-a10e-57e2131b9559;"><path d="M402.88-32.48L402.88-32.48L402.88-32.48Q401.20-30.72 394.96-30.80L394.96-30.80L394.96-30.80Q393.68-40.88 387.68-40.88L387.68-40.88L387.68-40.88Q382.96-40.88 379.68-35.44L379.68-35.44L379.68-35.44Q376.40-30 376.40-21.12L376.40-21.12L376.40-21.12Q376.40-12 379.28-7.08L379.28-7.08L379.28-7.08Q382.16-2.16 387.92-2.16L387.92-2.16L387.92-2.16Q394.00-2.16 399.84-7.12L399.84-7.12L399.84-7.12Q401.04-6.40 401.68-4.64L401.68-4.64L401.68-4.64Q395.84 1.60 387.04 1.60L387.04 1.60L387.04 1.60Q378.64 1.60 373.28-4.20L373.28-4.20L373.28-4.20Q367.92-10 367.92-21.28L367.92-21.28L367.92-21.28Q367.92-32.08 373.88-38.20L373.88-38.20L373.88-38.20Q379.84-44.32 387.52-44.32L387.52-44.32L387.52-44.32Q393.60-44.32 398.24-41.28L398.24-41.28L398.24-41.28Q402.88-38.24 402.88-32.48" fill="#ffffff" stroke="none" stroke-width="none" transform="translate(-222.16000366210938,22.362705154418947)" style="fill: rgb(230, 246, 255);"></path></g><g class="path" style="transform: matrix(1, 0, 0, 1, 0, 0); transform-origin: 206.12px 1.0027px; animation: 12.5s linear 0s infinite normal forwards running tremble-f1894443-e74d-4dbf-a10e-57e2131b9559;"><path d="M416.40-10.64L416.40-10.64L416.40-10.64Q416.40-6.48 417.92-4.76L417.92-4.76L417.92-4.76Q419.44-3.04 422.72-3.04L422.72-3.04L422.72-3.04Q425.12-3.04 428.04-4.52L428.04-4.52L428.04-4.52Q430.96-6 433.44-8.80L433.44-8.80L433.44-21.28L433.44-21.28Q425.20-20.80 420.80-18.36L420.80-18.36L420.80-18.36Q416.40-15.92 416.40-10.64zM433.44-24.16L433.44-24.16L433.44-28.24L433.44-28.24Q433.44-35.04 431.88-38.12L431.88-38.12L431.88-38.12Q430.32-41.20 426.72-41.20L426.72-41.20L426.72-41.20Q423.04-41.20 420.80-38.84L420.80-38.84L420.80-38.84Q418.56-36.48 417.76-30.80L417.76-30.80L417.76-30.80Q415.20-30.24 414-30.24L414-30.24L414-30.24Q410.88-30.24 410.32-32.48L410.32-32.48L410.32-32.48Q410.32-37.92 415.04-41.12L415.04-41.12L415.04-41.12Q419.76-44.32 426.80-44.32L426.80-44.32L426.80-44.32Q434.56-44.32 437.80-41.16L437.80-41.16L437.80-41.16Q441.04-38 441.04-29.84L441.04-29.84L441.04-7.28L441.04-7.28Q441.04-5.28 441.28-3.84L441.28-3.84L447.60-3.04L447.60-3.04Q447.92-1.84 447.60 0L447.60 0L447.60 0Q441.92 0.24 435.52 1.12L435.52 1.12L435.52 1.12Q434.88 0.48 434.72-0.48L434.72-0.48L434.32-6L434.32-6Q427.68 1.60 419.52 1.60L419.52 1.60L419.52 1.60Q414.48 1.60 411.64-1.28L411.64-1.28L411.64-1.28Q408.80-4.16 408.80-9.04L408.80-9.04L408.80-9.04Q408.80-16.40 415.48-20.16L415.48-20.16L415.48-20.16Q422.16-23.92 433.44-24.16" fill="#ffffff" stroke="none" stroke-width="none" transform="translate(-222.16000366210938,22.362705154418947)" style="fill: rgb(230, 246, 255);"></path></g></g>
</g>
</g>
<style id="tremble-f1894443-e74d-4dbf-a10e-57e2131b9559" data-anikit="">@keyframes tremble-f1894443-e74d-4dbf-a10e-57e2131b9559 {
  0% { transform: translate(0px,0px) rotate(0deg) scale(1) }
  3.33333% { transform: translate(-0.18923px,1.45485px) rotate(0deg) scale(1) }
  6.66667% { transform: translate(-0.84296px,-1.32524px) rotate(0deg) scale(1) }
  10% { transform: translate(0.67971px,1.00422px) rotate(0deg) scale(1) }
  13.33333% { transform: translate(-0.5056px,0.83616px) rotate(0deg) scale(1) }
  16.66667% { transform: translate(1.31368px,-0.51401px) rotate(0deg) scale(1) }
  20% { transform: translate(-1.21184px,1.49193px) rotate(0deg) scale(1) }
  23.33333% { transform: translate(1.09065px,-0.21259px) rotate(0deg) scale(1) }
  26.66667% { transform: translate(-1.49916px,0.56159px) rotate(0deg) scale(1) }
  30% { transform: translate(1.48086px,1.21228px) rotate(0deg) scale(1) }
  33.33333% { transform: translate(-1.43889px,-1.152px) rotate(0deg) scale(1) }
  36.66667% { transform: translate(1.35914px,1.34835px) rotate(0deg) scale(1) }
  40% { transform: translate(-1.42834px,0.3091px) rotate(0deg) scale(1) }
  43.33333% { transform: translate(1.47472px,-1.49889px) rotate(0deg) scale(1) }
  46.66667% { transform: translate(-0.92402px,1.4416px) rotate(0deg) scale(1) }
  50% { transform: translate(1.0657px,-0.75306px) rotate(0deg) scale(1) }
  53.33333% { transform: translate(-1.19035px,-1.07484px) rotate(0deg) scale(1) }
  56.66667% { transform: translate(0.28828px,0.79337px) rotate(0deg) scale(1) }
  60% { transform: translate(-0.47167px,-1.42789px) rotate(0deg) scale(1) }
  63.33333% { transform: translate(0.64753px,-0.09795px) rotate(0deg) scale(1) }
  66.66667% { transform: translate(0.41006px,-0.26292px) rotate(0deg) scale(1) }
  70% { transform: translate(-0.22477px,-1.3683px) rotate(0deg) scale(1) }
  73.33333% { transform: translate(0.03588px,0.92931px) rotate(0deg) scale(1) }
  76.66667% { transform: translate(-1.01937px,-1.18398px) rotate(0deg) scale(1) }
  80% { transform: translate(0.8724px,-0.60494px) rotate(0deg) scale(1) }
  83.33333% { transform: translate(-0.71151px,1.4786px) rotate(0deg) scale(1) }
  86.66667% { transform: translate(1.40734px,-1.49607px) rotate(0deg) scale(1) }
  90% { transform: translate(-1.33062px,0.46957px) rotate(0deg) scale(1) }
  93.33333% { transform: translate(1.23264px,1.26738px) rotate(0deg) scale(1) }
  96.66667% { transform: translate(-1.48975px,-1.03867px) rotate(0deg) scale(1) }
  100% { transform: translate(0,0) rotate(0) scale(1) }
}</style></svg>